<?xml version="1.0" standalone="no"?>
<svg version="1.0" xmlns="http://www.w3.org/2000/svg"
 width="1000.000000pt" height="410.000000pt" viewBox="0 0 1000.000000 410.000000"
 preserveAspectRatio="xMidYMid meet">
	<g transform="translate(0.000000,410.000000) scale(0.100000,-0.100000)"
	fill="#000000" stroke="none">
		<path d="M1454 3226 c-425 -70 -657 -320 -746 -806 -29 -158 -31 -544 -4 -695
		86 -480 335 -727 796 -790 275 -38 544 -2 770 101 123 57 110 -16 110 629 0
		423 -3 564 -12 573 -9 9 -108 12 -384 12 -325 0 -375 -2 -388 -16 -13 -13 -16
		-45 -16 -198 0 -128 4 -186 12 -194 8 -8 58 -12 160 -12 l148 0 0 -220 0 -220
		-27 -7 c-16 -5 -100 -8 -188 -8 -195 1 -242 15 -336 102 -71 66 -127 173 -156
		298 -26 116 -26 485 0 598 53 224 182 359 384 402 131 28 414 12 532 -29 24
		-9 54 -16 67 -16 26 0 23 -10 80 229 l37 155 -23 18 c-29 23 -159 64 -268 84
		-120 21 -442 27 -548 10z"/>
		<path d="M4513 3153 c-10 -4 -13 -232 -13 -1093 0 -983 2 -1088 16 -1094 9 -3
		109 -6 224 -6 161 0 210 3 219 13 7 10 12 154 13 473 l3 459 318 3 317 2 0
		-463 c0 -347 3 -466 12 -475 9 -9 73 -12 224 -12 180 0 215 2 228 16 14 14 16
		126 16 1084 0 958 -2 1070 -16 1084 -13 14 -48 16 -228 16 -151 0 -215 -3
		-224 -12 -9 -9 -12 -114 -12 -410 l0 -398 -320 0 -320 0 0 398 c0 296 -3 401
		-12 410 -9 9 -71 12 -222 11 -116 0 -217 -3 -223 -6z"/>
		<path d="M7896 3144 c-14 -14 -16 -126 -16 -1084 0 -958 2 -1070 16 -1084 13
		-13 42 -16 164 -16 163 0 180 6 180 58 0 52 13 56 63 22 58 -39 146 -75 235
		-97 96 -24 307 -23 387 1 176 53 275 154 334 339 45 145 56 238 55 477 -1 198
		-3 222 -27 312 -63 235 -186 370 -382 417 -130 32 -349 7 -483 -54 -30 -14
		-56 -25 -58 -25 -2 0 -4 163 -4 363 0 269 -3 366 -12 375 -9 9 -73 12 -224 12
		-180 0 -215 -2 -228 -16z m825 -1056 c92 -51 124 -148 123 -373 0 -248 -31
		-347 -122 -387 -78 -35 -267 -14 -349 38 l-23 14 0 336 0 335 48 20 c118 52
		249 59 323 17z"/>
		<path d="M2770 3095 c-178 -56 -238 -287 -111 -428 124 -138 346 -106 427 60
		71 145 -4 322 -157 367 -63 19 -99 19 -159 1z"/>
		<path d="M3497 2884 c-4 -4 -7 -103 -7 -220 l0 -213 -37 -10 c-21 -5 -67 -17
		-103 -26 -120 -29 -110 -13 -110 -185 l0 -150 26 -10 c14 -6 70 -10 125 -10
		l99 0 0 -365 c0 -233 4 -383 11 -417 18 -84 54 -154 108 -211 90 -96 217 -139
		406 -139 111 -1 244 21 271 43 18 15 21 324 3 335 -7 4 -59 7 -118 8 -120 1
		-158 15 -191 69 -19 30 -20 52 -20 355 l0 322 150 0 c201 0 190 -11 190 201 0
		91 -4 169 -10 180 -10 18 -23 19 -170 19 l-160 0 -1 63 c-1 34 -4 130 -8 212
		l-6 150 -221 3 c-121 1 -223 -1 -227 -4z"/>
		<path d="M2622 2448 c-9 -9 -12 -186 -12 -734 l0 -723 22 -15 c19 -13 57 -16
		220 -16 185 0 199 1 218 20 20 20 20 33 20 738 0 545 -3 721 -12 730 -17 17
		-439 17 -456 0z"/>
		<path d="M6303 2453 c-20 -7 -18 -1093 1 -1184 47 -220 197 -329 475 -346 165
		-10 346 29 487 106 31 17 61 28 65 25 5 -3 9 -18 9 -34 0 -54 17 -60 165 -60
		73 0 140 3 149 6 14 6 16 80 16 744 0 664 -2 738 -16 744 -31 12 -429 7 -442
		-6 -9 -9 -12 -143 -12 -540 l0 -528 -38 -19 c-109 -56 -271 -68 -329 -25 -64
		47 -63 38 -63 591 0 443 -2 503 -16 517 -13 14 -47 16 -227 15 -117 0 -218 -3
		-224 -6z"/>
	</g>
</svg>
