<?xml version="1.0" standalone="no"?>
<svg version="1.0" xmlns="http://www.w3.org/2000/svg"
 width="120.000000pt" height="120.000000pt" viewBox="0 0 120.000000 120.000000"
 preserveAspectRatio="xMidYMid meet">
	<g transform="translate(0.000000,120.000000) scale(0.100000,-0.100000)"
	fill="#000000" stroke="none">
		<path d="M452 1170 c-109 -29 -187 -74 -272 -160 -87 -86 -131 -163 -160 -276
		-36 -141 -18 -294 52 -427 48 -92 164 -205 259 -251 104 -51 113 -48 117 36
		l3 66 -60 0 c-75 0 -112 21 -146 83 -14 26 -40 59 -57 74 -21 18 -28 29 -20
		37 13 13 55 0 46 -14 -5 -7 -1 -9 8 -5 9 3 25 -4 37 -17 22 -23 28 -42 11 -31
		-5 3 -10 1 -10 -5 0 -7 6 -10 13 -7 6 2 22 -5 34 -16 23 -21 109 -34 129 -20
		5 4 19 27 30 49 l20 42 -45 6 c-57 8 -142 55 -171 96 -32 44 -50 113 -50 186
		0 49 6 73 28 115 22 42 27 64 24 97 -2 23 -1 58 2 77 6 30 11 35 35 35 16 0
		54 -13 85 -29 55 -28 59 -28 132 -18 53 8 95 8 148 0 73 -10 77 -10 132 18 31
		16 69 29 85 29 24 0 29 -5 35 -35 3 -19 4 -54 2 -77 -3 -33 2 -55 24 -97 51
		-97 32 -247 -41 -320 -39 -39 -130 -81 -177 -81 -24 0 -24 0 -7 -27 14 -21 19
		-55 23 -152 6 -151 6 -151 117 -96 297 147 415 506 266 808 -46 91 -160 208
		-250 255 -132 69 -291 88 -431 52z"/>
	</g>
</svg>
